<svg data-v-423bf9ae="" xmlns="http://www.w3.org/2000/svg" viewBox="0 0 372 112" class="iconLeft"><!----><!----><!----><g data-v-423bf9ae="" id="00391f72-00f5-4077-9022-9f0b9f3c50f8" fill="#000000" transform="matrix(4.746835314106284,0,0,4.746835314106284,92.79942380728252,8.277073587062475)"><path d="M6.34 9.32L6.34 9.72C6.34 9.76 6.37 9.80 6.40 9.83C6.43 9.86 6.47 9.87 6.52 9.87L8.43 9.87L8.43 12.54C8.20 12.67 7.98 12.78 7.77 12.88C7.56 12.98 7.32 13.08 7.08 13.15C6.85 13.22 6.58 13.27 6.30 13.30C6.02 13.33 5.71 13.34 5.38 13.34C4.76 13.34 4.20 13.24 3.70 13.03C3.19 12.82 2.76 12.53 2.39 12.15C2.03 11.77 1.75 11.30 1.55 10.74C1.36 10.18 1.25 9.56 1.25 8.86C1.25 8.18 1.36 7.56 1.55 7.01C1.75 6.47 2.03 5.99 2.39 5.61C2.76 5.24 3.21 4.94 3.72 4.73C4.24 4.52 4.82 4.42 5.46 4.42C6.64 4.42 7.57 4.58 8.26 4.90C8.30 5.81 8.33 6.31 8.33 6.41C8.34 6.64 8.44 6.75 8.64 6.75L8.97 6.75L8.97 4.51C8.54 4.31 7.98 4.14 7.28 4.00C6.58 3.86 5.99 3.81 5.49 3.81C4.73 3.81 4.05 3.92 3.43 4.16C2.81 4.40 2.30 4.75 1.86 5.18C1.43 5.61 1.11 6.15 0.87 6.78C0.63 7.39 0.52 8.09 0.52 8.86C0.52 9.63 0.63 10.32 0.87 10.95C1.11 11.58 1.43 12.10 1.85 12.54C2.27 12.99 2.79 13.33 3.37 13.57C3.96 13.80 4.61 13.93 5.32 13.93C5.74 13.93 6.12 13.90 6.47 13.86C6.82 13.80 7.14 13.73 7.45 13.65C7.76 13.55 8.04 13.44 8.30 13.30C8.57 13.16 8.82 13.01 9.07 12.84L9.07 9.32ZM16.98 6.86L16.46 6.86L15.06 6.86L15.06 7.13C15.06 7.28 15.16 7.36 15.34 7.38L15.41 7.38C15.44 7.38 15.47 7.39 15.51 7.39L15.72 7.39C15.82 7.39 15.93 7.41 16.06 7.41L13.92 12.45L13.83 12.66C13.80 12.73 13.79 12.80 13.76 12.87C13.75 12.80 13.71 12.73 13.69 12.66C13.66 12.59 13.65 12.52 13.62 12.45L11.45 7.41C11.61 7.41 11.75 7.39 11.86 7.39C11.97 7.39 12.05 7.38 12.08 7.38L12.17 7.38C12.35 7.36 12.45 7.28 12.45 7.13L12.45 6.86L11.03 6.86L11.03 6.86L10.47 6.86L10.01 6.86L10.01 7.13C10.01 7.28 10.11 7.36 10.29 7.38C10.29 7.38 10.43 7.38 10.71 7.39L13.43 13.57L12.19 16.28L12.67 16.28C12.75 16.28 12.82 16.25 12.87 16.21C12.91 16.17 12.95 16.13 12.98 16.06L16.74 7.39L17.00 7.39C17.08 7.39 17.12 7.38 17.15 7.38L17.22 7.38C17.40 7.36 17.50 7.28 17.50 7.13L17.50 6.86ZM29.37 13.29L29.29 13.29L29.19 13.29C29.15 13.29 29.08 13.27 28.98 13.27C28.88 13.27 28.76 13.26 28.63 13.26L28.63 9.37C28.63 8.95 28.57 8.57 28.48 8.25C28.38 7.92 28.24 7.64 28.04 7.42C27.85 7.20 27.61 7.03 27.33 6.92C27.05 6.80 26.75 6.75 26.40 6.75C26.17 6.75 25.91 6.78 25.69 6.85C25.47 6.92 25.26 7.01 25.06 7.15C24.86 7.29 24.68 7.46 24.53 7.67C24.37 7.88 24.26 8.13 24.18 8.43C24.07 7.90 23.87 7.48 23.56 7.18C23.25 6.89 22.85 6.75 22.34 6.75C22.12 6.75 21.91 6.76 21.71 6.83C21.52 6.89 21.34 6.99 21.15 7.10C20.99 7.21 20.82 7.36 20.66 7.52C20.51 7.67 20.37 7.84 20.23 8.04L20.17 7.03C20.16 6.92 20.09 6.86 19.96 6.86L19.60 6.86L18.59 6.86L18.59 7.13C18.59 7.28 18.68 7.36 18.86 7.38L18.94 7.38C18.97 7.38 19.00 7.39 19.04 7.39L19.25 7.39C19.35 7.39 19.47 7.41 19.60 7.41L19.60 13.26C19.43 13.26 19.29 13.29 19.18 13.29L18.96 13.29L18.86 13.29C18.68 13.30 18.59 13.38 18.59 13.54L18.59 13.82L19.60 13.82L20.26 13.82L21.27 13.82L21.27 13.54C21.27 13.38 21.18 13.30 21 13.29L20.92 13.29L20.82 13.29C20.78 13.29 20.71 13.27 20.61 13.27C20.51 13.27 20.38 13.26 20.26 13.26L20.26 8.55C20.51 8.15 20.80 7.84 21.13 7.62C21.45 7.39 21.80 7.28 22.18 7.28C22.69 7.28 23.09 7.45 23.35 7.81C23.62 8.18 23.76 8.69 23.76 9.37L23.76 13.82L24.43 13.82L24.43 13.82L25.44 13.82L25.44 13.54C25.44 13.38 25.34 13.30 25.16 13.29L25.09 13.29L24.98 13.29C24.93 13.29 24.86 13.27 24.77 13.27C24.67 13.27 24.56 13.26 24.43 13.26L24.43 9.37C24.43 9.02 24.47 8.72 24.57 8.46C24.67 8.19 24.81 7.97 24.98 7.80C25.14 7.63 25.34 7.49 25.56 7.41C25.79 7.32 26.03 7.28 26.26 7.28C26.81 7.28 27.23 7.46 27.52 7.81C27.82 8.18 27.97 8.68 27.97 9.37L27.97 13.82L28.63 13.82L29.64 13.82L29.64 13.54C29.64 13.38 29.55 13.30 29.37 13.29ZM37.16 4.68C36.57 4.17 35.69 3.92 34.52 3.92L32.12 3.92L30.93 3.92L30.93 4.19C30.93 4.34 31.02 4.42 31.21 4.44L31.35 4.44C31.42 4.44 31.51 4.45 31.65 4.45C31.79 4.45 31.95 4.47 32.12 4.47L32.12 13.26C31.95 13.26 31.79 13.27 31.65 13.27C31.51 13.27 31.42 13.29 31.35 13.29L31.21 13.29C31.02 13.30 30.93 13.38 30.93 13.54L30.93 13.82L32.12 13.82L32.83 13.82L34.01 13.82L34.01 13.54C34.01 13.38 33.91 13.30 33.73 13.29L33.60 13.29C33.53 13.29 33.42 13.27 33.28 13.27C33.14 13.27 33.00 13.26 32.83 13.26L32.83 9.83L34.52 9.83C35.07 9.83 35.56 9.74 35.99 9.60C36.43 9.45 36.79 9.25 37.10 8.99C37.41 8.72 37.65 8.41 37.80 8.05C37.97 7.69 38.04 7.29 38.04 6.86C38.04 5.92 37.74 5.18 37.16 4.68ZM37.13 7.81C37.00 8.11 36.82 8.36 36.58 8.57C36.34 8.78 36.05 8.95 35.70 9.07C35.35 9.20 34.96 9.25 34.52 9.25L32.83 9.25L32.83 4.48L34.52 4.48C35.45 4.48 36.15 4.69 36.62 5.10C37.09 5.50 37.32 6.09 37.32 6.85C37.32 7.20 37.25 7.52 37.13 7.81ZM44.48 13.29L44.38 13.29L44.16 13.29C44.06 13.29 43.95 13.27 43.83 13.27L43.83 9.28C43.83 8.89 43.79 8.55 43.69 8.23C43.60 7.91 43.46 7.64 43.27 7.42C43.09 7.20 42.85 7.03 42.57 6.92C42.29 6.79 41.97 6.73 41.59 6.73C41.09 6.73 40.64 6.83 40.24 7.01C39.83 7.20 39.45 7.48 39.09 7.84L39.20 8.05C39.24 8.13 39.31 8.18 39.41 8.18C39.48 8.18 39.58 8.12 39.68 8.02C39.77 7.92 39.91 7.84 40.08 7.73C40.25 7.62 40.43 7.52 40.67 7.42C40.91 7.32 41.19 7.28 41.52 7.28C42.07 7.28 42.49 7.45 42.77 7.80C43.05 8.15 43.18 8.64 43.18 9.28L43.18 10.01C42.39 10.02 41.72 10.09 41.16 10.21C40.60 10.32 40.14 10.47 39.77 10.65C39.41 10.84 39.16 11.06 38.99 11.31C38.82 11.56 38.74 11.83 38.74 12.12C38.74 12.45 38.79 12.73 38.89 12.95C39.00 13.17 39.14 13.36 39.31 13.50C39.48 13.64 39.69 13.75 39.91 13.82C40.14 13.89 40.36 13.93 40.60 13.93C40.88 13.93 41.15 13.90 41.38 13.85C41.62 13.79 41.83 13.71 42.04 13.61C42.25 13.51 42.45 13.38 42.64 13.23C42.83 13.08 43.01 12.91 43.20 12.73L43.30 13.62C43.33 13.75 43.43 13.82 43.57 13.82L43.58 13.82L43.83 13.82L44.76 13.82L44.76 13.54C44.76 13.38 44.66 13.30 44.48 13.29ZM43.18 12.26C43.01 12.43 42.85 12.60 42.69 12.74C42.52 12.88 42.34 13.01 42.14 13.12C41.94 13.23 41.73 13.30 41.51 13.36C41.29 13.41 41.03 13.44 40.77 13.44C40.59 13.44 40.40 13.43 40.24 13.37C40.07 13.31 39.93 13.24 39.80 13.13C39.68 13.02 39.56 12.88 39.49 12.71C39.41 12.54 39.38 12.35 39.38 12.11C39.38 11.86 39.45 11.63 39.61 11.44C39.76 11.24 39.98 11.09 40.29 10.95C40.60 10.81 40.99 10.70 41.47 10.61C41.94 10.53 42.52 10.47 43.18 10.46ZM50.58 6.80C50.40 6.76 50.22 6.73 50.01 6.73C49.46 6.73 49 6.89 48.62 7.21C48.24 7.53 47.95 7.98 47.73 8.54L47.67 7.07C47.67 6.99 47.64 6.93 47.61 6.90C47.59 6.87 47.53 6.86 47.45 6.86L47.10 6.86L47.10 6.86L46.09 6.86L46.09 7.13C46.09 7.31 46.19 7.36 46.35 7.38C46.44 7.38 46.52 7.38 47.10 7.41L47.10 13.26C46.52 13.29 46.44 13.29 46.35 13.29C46.19 13.30 46.09 13.36 46.09 13.54L46.09 13.82L47.10 13.82L47.75 13.82L47.75 13.82L48.76 13.82L48.76 13.54C48.76 13.36 48.66 13.30 48.50 13.29C48.41 13.29 48.33 13.29 47.75 13.26L47.75 9.30C47.96 8.68 48.24 8.20 48.58 7.88C48.92 7.56 49.35 7.39 49.88 7.39C50.02 7.39 50.15 7.41 50.26 7.42C50.37 7.43 50.48 7.45 50.55 7.48C50.64 7.50 50.68 7.53 50.74 7.55C50.79 7.56 50.83 7.57 50.86 7.57C50.95 7.57 50.99 7.53 51.00 7.46L51.09 7.00C50.93 6.92 50.76 6.85 50.58 6.80ZM58.53 13.29L58.46 13.29L58.39 13.29L58.24 13.29C58.17 13.29 58.09 13.27 58.00 13.27L55.27 10.30C55.22 10.25 55.17 10.19 55.12 10.14C55.06 10.08 54.99 10.05 54.92 10.01C54.98 9.98 55.02 9.94 55.06 9.90C55.10 9.86 55.16 9.81 55.20 9.77L57.69 7.41C57.78 7.41 57.85 7.39 57.92 7.39C57.99 7.39 58.04 7.38 58.10 7.38L58.20 7.38C58.38 7.36 58.46 7.28 58.46 7.13L58.46 6.85L57.74 6.85L57.46 6.85L56.31 6.85L56.31 7.13C56.31 7.28 56.41 7.36 56.59 7.38C56.60 7.38 56.71 7.38 56.94 7.39L54.53 9.69C54.46 9.76 54.39 9.80 54.33 9.81C54.28 9.83 54.22 9.84 54.15 9.84L53.83 9.84L53.83 3.64L53.16 3.64L52.15 3.64L52.15 3.91C52.15 4.06 52.25 4.14 52.43 4.16L52.50 4.16C52.53 4.16 52.57 4.17 52.61 4.17L52.82 4.17C52.92 4.17 53.03 4.19 53.16 4.19L53.16 13.26C53.00 13.26 52.86 13.29 52.75 13.29L52.51 13.29L52.43 13.29C52.25 13.30 52.15 13.38 52.15 13.54L52.15 13.82L53.16 13.82L53.83 13.82L54.84 13.82L54.84 13.54C54.84 13.38 54.74 13.30 54.56 13.29L54.49 13.29L54.38 13.29C54.33 13.29 54.26 13.27 54.17 13.27C54.07 13.27 53.96 13.26 53.83 13.26L53.83 10.30L54.14 10.30C54.28 10.30 54.38 10.32 54.45 10.35C54.52 10.37 54.59 10.44 54.67 10.53L57.60 13.65C57.65 13.71 57.69 13.75 57.75 13.78C57.81 13.80 57.85 13.82 57.92 13.82L57.96 13.82L58.51 13.82L58.81 13.82L58.81 13.54C58.81 13.38 58.72 13.30 58.53 13.29Z"></path></g><defs data-v-423bf9ae=""><linearGradient data-v-423bf9ae="" gradientTransform="rotate(25)" id="9ef1ca71-3580-4f80-8f23-fd0b0701fb5f" x1="0%" y1="0%" x2="100%" y2="0%"><stop data-v-423bf9ae="" offset="0%" style="stop-color: rgb(180, 55, 61); stop-opacity: 1;"></stop><stop data-v-423bf9ae="" offset="100%" style="stop-color: rgb(178, 58, 203); stop-opacity: 1;"></stop></linearGradient></defs><g data-v-423bf9ae="" id="58d9bbc1-7a7d-4148-8e5f-cc56bbc2b8bb" transform="matrix(1.1111111111111112,0,0,1.1111111111111112,-17.426002714369034,0.44444444444444287)" stroke="none" fill="url(#9ef1ca71-3580-4f80-8f23-fd0b0701fb5f)"><path d="M50 0C31.294 0 16.129 15.165 16.129 33.87c0 .401.012.809.03 1.221a33.799 33.799 0 0 0 1.939 10.172C25.324 69.015 50 100 50 100s24.673-30.982 31.9-54.734a33.726 33.726 0 0 0 1.939-10.175c.02-.412.031-.819.031-1.221C83.871 15.165 68.706 0 50 0zm0 50.459c-9.161 0-16.589-7.428-16.589-16.589 0-9.16 7.428-16.588 16.589-16.588 9.162 0 16.589 7.428 16.589 16.588 0 9.161-7.427 16.589-16.589 16.589z"></path></g><!----></svg>